G04 #@! TF.GenerationSoftware,KiCad,Pcbnew,8.0.7-1.fc41*
G04 #@! TF.CreationDate,2025-02-15T00:44:52+02:00*
G04 #@! TF.ProjectId,fan_pwm_to_rotor_lock,66616e5f-7077-46d5-9f74-6f5f726f746f,rev?*
G04 #@! TF.SameCoordinates,Original*
G04 #@! TF.FileFunction,Legend,Top*
G04 #@! TF.FilePolarity,Positive*
%FSLAX46Y46*%
G04 Gerber Fmt 4.6, Leading zero omitted, Abs format (unit mm)*
G04 Created by KiCad (PCBNEW 8.0.7-1.fc41) date 2025-02-15 00:44:52*
%MOMM*%
%LPD*%
G01*
G04 APERTURE LIST*
G04 Aperture macros list*
%AMRoundRect*
0 Rectangle with rounded corners*
0 $1 Rounding radius*
0 $2 $3 $4 $5 $6 $7 $8 $9 X,Y pos of 4 corners*
0 Add a 4 corners polygon primitive as box body*
4,1,4,$2,$3,$4,$5,$6,$7,$8,$9,$2,$3,0*
0 Add four circle primitives for the rounded corners*
1,1,$1+$1,$2,$3*
1,1,$1+$1,$4,$5*
1,1,$1+$1,$6,$7*
1,1,$1+$1,$8,$9*
0 Add four rect primitives between the rounded corners*
20,1,$1+$1,$2,$3,$4,$5,0*
20,1,$1+$1,$4,$5,$6,$7,0*
20,1,$1+$1,$6,$7,$8,$9,0*
20,1,$1+$1,$8,$9,$2,$3,0*%
G04 Aperture macros list end*
%ADD10C,0.500000*%
%ADD11C,0.120000*%
%ADD12C,0.800000*%
%ADD13C,6.400000*%
%ADD14RoundRect,0.250000X-0.475000X0.337500X-0.475000X-0.337500X0.475000X-0.337500X0.475000X0.337500X0*%
%ADD15RoundRect,0.250000X-0.337500X-0.475000X0.337500X-0.475000X0.337500X0.475000X-0.337500X0.475000X0*%
%ADD16R,0.300000X1.600000*%
%ADD17C,1.100000*%
%ADD18R,2.030000X1.730000*%
%ADD19O,2.030000X1.730000*%
%ADD20RoundRect,0.250000X0.250000X0.250000X-0.250000X0.250000X-0.250000X-0.250000X0.250000X-0.250000X0*%
%ADD21RoundRect,0.250000X-0.350000X-0.450000X0.350000X-0.450000X0.350000X0.450000X-0.350000X0.450000X0*%
%ADD22RoundRect,0.250000X0.450000X-0.350000X0.450000X0.350000X-0.450000X0.350000X-0.450000X-0.350000X0*%
%ADD23RoundRect,0.250000X-0.450000X0.350000X-0.450000X-0.350000X0.450000X-0.350000X0.450000X0.350000X0*%
G04 APERTURE END LIST*
D10*
X43789600Y-25730200D02*
X44754800Y-26695400D01*
X43789600Y-25730200D02*
X42824400Y-26695400D01*
X43789600Y-29260800D02*
X43789600Y-25730200D01*
D11*
X39419200Y-28216047D02*
X39419200Y-28738553D01*
X37949200Y-28216047D02*
X37949200Y-28738553D01*
X40581947Y-24385600D02*
X41104453Y-24385600D01*
X40581947Y-25855600D02*
X41104453Y-25855600D01*
X38947701Y-22037400D02*
X38617701Y-21797400D01*
X38947701Y-21557400D01*
X38947701Y-22037400D01*
G36*
X38947701Y-22037400D02*
G01*
X38617701Y-21797400D01*
X38947701Y-21557400D01*
X38947701Y-22037400D01*
G37*
X35717701Y-25147400D02*
X35717701Y-22147400D01*
X38717701Y-25147400D02*
X38717701Y-22147400D01*
X28921400Y-38078400D02*
X28921400Y-32328400D01*
X28971400Y-27778400D02*
X34921400Y-27778400D01*
X28971400Y-30978400D02*
X28971400Y-27778400D01*
X33811400Y-31648400D02*
X34821400Y-31648400D01*
X33811400Y-36728400D02*
X33811400Y-31648400D01*
X34821400Y-36728400D02*
X33811400Y-36728400D01*
X34921400Y-27778400D02*
X34921400Y-38078400D01*
X34921400Y-38078400D02*
X28921400Y-38078400D01*
X39419200Y-32072947D02*
X39419200Y-32595453D01*
X37949200Y-32072947D02*
X37949200Y-32595453D01*
X41761000Y-36206800D02*
X41761000Y-34506800D01*
X41761000Y-36206800D02*
X38501000Y-36206800D01*
X41761000Y-34506800D02*
X38501000Y-34506800D01*
X39320736Y-36552200D02*
X39774864Y-36552200D01*
X39320736Y-38022200D02*
X39774864Y-38022200D01*
X35866400Y-28741864D02*
X35866400Y-28287736D01*
X37336400Y-28741864D02*
X37336400Y-28287736D01*
X41502000Y-28287736D02*
X41502000Y-28741864D01*
X40032000Y-28287736D02*
X40032000Y-28741864D01*
X37336400Y-32545264D02*
X37336400Y-32091136D01*
X35866400Y-32545264D02*
X35866400Y-32091136D01*
X41502000Y-32091136D02*
X41502000Y-32545264D01*
X40032000Y-32091136D02*
X40032000Y-32545264D01*
X28921400Y-26496000D02*
X28921400Y-20746000D01*
X28971400Y-16196000D02*
X34921400Y-16196000D01*
X28971400Y-19396000D02*
X28971400Y-16196000D01*
X33811400Y-20066000D02*
X34821400Y-20066000D01*
X33811400Y-25146000D02*
X33811400Y-20066000D01*
X34821400Y-25146000D02*
X33811400Y-25146000D01*
X34921400Y-16196000D02*
X34921400Y-26496000D01*
X34921400Y-26496000D02*
X28921400Y-26496000D01*
X37336400Y-36396664D02*
X37336400Y-35942536D01*
X35866400Y-36396664D02*
X35866400Y-35942536D01*
%LPC*%
D12*
X39662400Y-19253200D03*
X40365344Y-17556144D03*
X40365344Y-20950256D03*
X42062400Y-16853200D03*
D13*
X42062400Y-19253200D03*
D12*
X42062400Y-21653200D03*
X43759456Y-17556144D03*
X43759456Y-20950256D03*
X44462400Y-19253200D03*
D14*
X38684200Y-27439800D03*
X38684200Y-29514800D03*
D15*
X41880700Y-25120600D03*
X39805700Y-25120600D03*
D16*
X38192702Y-25347400D03*
X37542701Y-25347400D03*
X36892701Y-25347400D03*
X36242700Y-25347400D03*
X36242700Y-21947400D03*
X36892701Y-21947400D03*
X37542701Y-21947400D03*
X38192702Y-21947400D03*
D17*
X29361400Y-31648400D03*
D18*
X31521400Y-36728400D03*
D19*
X31521400Y-34188400D03*
X31521400Y-31648400D03*
X31521400Y-29108400D03*
D14*
X38684200Y-31296700D03*
X38684200Y-33371700D03*
D20*
X41000999Y-35356800D03*
X38501001Y-35356800D03*
D21*
X38547800Y-37287200D03*
X40547800Y-37287200D03*
D22*
X36601400Y-29514800D03*
X36601400Y-27514800D03*
D23*
X40767000Y-27514800D03*
X40767000Y-29514800D03*
D22*
X36601400Y-31318200D03*
X36601400Y-33318200D03*
D23*
X40767000Y-31318200D03*
X40767000Y-33318200D03*
D17*
X29361400Y-20066000D03*
D18*
X31521400Y-25146000D03*
D19*
X31521400Y-22606000D03*
X31521400Y-20066000D03*
X31521400Y-17526000D03*
D22*
X36601400Y-37169600D03*
X36601400Y-35169600D03*
%LPD*%
M02*
