G04 #@! TF.GenerationSoftware,KiCad,Pcbnew,9.0.0*
G04 #@! TF.CreationDate,2025-03-15T17:38:32+02:00*
G04 #@! TF.ProjectId,fan_pwm_to_rotor_lock,66616e5f-7077-46d5-9f74-6f5f726f746f,rev?*
G04 #@! TF.SameCoordinates,Original*
G04 #@! TF.FileFunction,Soldermask,Top*
G04 #@! TF.FilePolarity,Negative*
%FSLAX46Y46*%
G04 Gerber Fmt 4.6, Leading zero omitted, Abs format (unit mm)*
G04 Created by KiCad (PCBNEW 9.0.0) date 2025-03-15 17:38:32*
%MOMM*%
%LPD*%
G01*
G04 APERTURE LIST*
G04 Aperture macros list*
%AMRoundRect*
0 Rectangle with rounded corners*
0 $1 Rounding radius*
0 $2 $3 $4 $5 $6 $7 $8 $9 X,Y pos of 4 corners*
0 Add a 4 corners polygon primitive as box body*
4,1,4,$2,$3,$4,$5,$6,$7,$8,$9,$2,$3,0*
0 Add four circle primitives for the rounded corners*
1,1,$1+$1,$2,$3*
1,1,$1+$1,$4,$5*
1,1,$1+$1,$6,$7*
1,1,$1+$1,$8,$9*
0 Add four rect primitives between the rounded corners*
20,1,$1+$1,$2,$3,$4,$5,0*
20,1,$1+$1,$4,$5,$6,$7,0*
20,1,$1+$1,$6,$7,$8,$9,0*
20,1,$1+$1,$8,$9,$2,$3,0*%
G04 Aperture macros list end*
%ADD10RoundRect,0.250000X-0.475000X0.337500X-0.475000X-0.337500X0.475000X-0.337500X0.475000X0.337500X0*%
%ADD11RoundRect,0.250000X0.475000X-0.337500X0.475000X0.337500X-0.475000X0.337500X-0.475000X-0.337500X0*%
%ADD12RoundRect,0.250000X0.450000X-0.350000X0.450000X0.350000X-0.450000X0.350000X-0.450000X-0.350000X0*%
%ADD13R,0.300000X1.600000*%
%ADD14C,1.100000*%
%ADD15R,2.030000X1.730000*%
%ADD16O,2.030000X1.730000*%
%ADD17RoundRect,0.250000X0.250000X0.250000X-0.250000X0.250000X-0.250000X-0.250000X0.250000X-0.250000X0*%
%ADD18RoundRect,0.250000X-0.350000X-0.450000X0.350000X-0.450000X0.350000X0.450000X-0.350000X0.450000X0*%
%ADD19RoundRect,0.250000X-0.450000X0.350000X-0.450000X-0.350000X0.450000X-0.350000X0.450000X0.350000X0*%
%ADD20C,0.800000*%
%ADD21C,6.400000*%
G04 APERTURE END LIST*
D10*
X38684200Y-27439800D03*
X38684200Y-29514800D03*
D11*
X44196000Y-25557500D03*
X44196000Y-23482500D03*
D12*
X39979600Y-25552400D03*
X39979600Y-23552400D03*
D13*
X38192702Y-21947400D03*
X37542701Y-21947400D03*
X36892701Y-21947400D03*
X36242700Y-21947400D03*
X36242700Y-25347400D03*
X36892701Y-25347400D03*
X37542701Y-25347400D03*
X38192702Y-25347400D03*
D14*
X29361400Y-31648400D03*
D15*
X31521400Y-36728400D03*
D16*
X31521400Y-34188400D03*
X31521400Y-31648400D03*
X31521400Y-29108400D03*
D10*
X38684200Y-31296700D03*
X38684200Y-33371700D03*
D12*
X36601400Y-37169600D03*
X36601400Y-35169600D03*
D17*
X41000999Y-35356800D03*
X38501001Y-35356800D03*
D18*
X38547800Y-37287200D03*
X40547800Y-37287200D03*
D12*
X36601400Y-29514800D03*
X36601400Y-27514800D03*
D19*
X40767000Y-27514800D03*
X40767000Y-29514800D03*
D12*
X36601400Y-33318200D03*
X36601400Y-31318200D03*
D19*
X40767000Y-31318200D03*
X40767000Y-33318200D03*
D20*
X39662400Y-19253200D03*
X40365344Y-17556144D03*
X40365344Y-20950256D03*
X42062400Y-16853200D03*
D21*
X42062400Y-19253200D03*
D20*
X42062400Y-21653200D03*
X43759456Y-17556144D03*
X43759456Y-20950256D03*
X44462400Y-19253200D03*
D14*
X29361400Y-20066000D03*
D15*
X31521400Y-25146000D03*
D16*
X31521400Y-22606000D03*
X31521400Y-20066000D03*
X31521400Y-17526000D03*
M02*
