M48
; DRILL file {KiCad 8.0.7-1.fc41} date 2025-02-15T00:45:27+0200
; FORMAT={-:-/ absolute / metric / decimal}
; #@! TF.CreationDate,2025-02-15T00:45:27+02:00
; #@! TF.GenerationSoftware,Kicad,Pcbnew,8.0.7-1.fc41
; #@! TF.FileFunction,Plated,1,2,PTH
FMAT,2
METRIC
; #@! TA.AperFunction,Plated,PTH,ViaDrill
T1C0.350
; #@! TA.AperFunction,Plated,PTH,ComponentDrill
T2C0.500
; #@! TA.AperFunction,Plated,PTH,ComponentDrill
T3C1.020
; #@! TA.AperFunction,Plated,PTH,ComponentDrill
T4C3.200
%
G90
G05
T1
X35.306Y-24.587
X35.712Y-21.615
X36.243Y-26.518
X36.424Y-20.65
X37.567Y-20.752
X37.77Y-34.011
X39.751Y-29.515
X40.996Y-25.629
X41.513Y-32.312
X41.605Y-37.16
T2
X39.662Y-19.253
X40.365Y-17.556
X40.365Y-20.95
X42.062Y-16.853
X42.062Y-21.653
X43.759Y-17.556
X43.759Y-20.95
X44.462Y-19.253
T3
X31.521Y-17.526
X31.521Y-20.066
X31.521Y-22.606
X31.521Y-25.146
X31.521Y-29.108
X31.521Y-31.648
X31.521Y-34.188
X31.521Y-36.728
T4
X42.062Y-19.253
M30
