%TF.GenerationSoftware,KiCad,Pcbnew,8.0.7-1.fc41*%
%TF.CreationDate,2025-02-15T00:45:29+02:00*%
%TF.ProjectId,fan_pwm_to_rotor_lock,66616e5f-7077-46d5-9f74-6f5f726f746f,rev?*%
%TF.SameCoordinates,Original*%
%TF.FileFunction,Drillmap*%
%TF.FilePolarity,Positive*%
%FSLAX45Y45*%
G04 Gerber Fmt 4.5, Leading zero omitted, Abs format (unit mm)*
G04 Created by KiCad (PCBNEW 8.0.7-1.fc41) date 2025-02-15 00:45:29*
%MOMM*%
%LPD*%
G01*
G04 APERTURE LIST*
%ADD10C,0.100000*%
%ADD11C,0.200000*%
%ADD12C,0.110000*%
G04 APERTURE END LIST*
D10*
X2827020Y-1769720D02*
G75*
G02*
X3027020Y-1569720I200000J0D01*
G01*
X3027020Y-3855720D02*
G75*
G02*
X2827020Y-3655720I0J200000D01*
G01*
X4361840Y-1569720D02*
G75*
G02*
X4561840Y-1769720I0J-200000D01*
G01*
X4561840Y-3655720D02*
G75*
G02*
X4361840Y-3855720I-200000J0D01*
G01*
X3027020Y-1569720D02*
X4361840Y-1569720D01*
X2827020Y-3655720D02*
X2827020Y-1769720D01*
X4361840Y-3855720D02*
X3027020Y-3855720D01*
X4561840Y-1769720D02*
X4561840Y-3655720D01*
D11*
D12*
X2881140Y-1951600D02*
X2991140Y-2061600D01*
X2991140Y-1951600D02*
X2881140Y-2061600D01*
X2881140Y-3109840D02*
X2991140Y-3219840D01*
X2991140Y-3109840D02*
X2881140Y-3219840D01*
D11*
X3082797Y-4172204D02*
X3082797Y-3972204D01*
X3082797Y-3972204D02*
X3130416Y-3972204D01*
X3130416Y-3972204D02*
X3158987Y-3981728D01*
X3158987Y-3981728D02*
X3178035Y-4000775D01*
X3178035Y-4000775D02*
X3187559Y-4019823D01*
X3187559Y-4019823D02*
X3197082Y-4057918D01*
X3197082Y-4057918D02*
X3197082Y-4086489D01*
X3197082Y-4086489D02*
X3187559Y-4124585D01*
X3187559Y-4124585D02*
X3178035Y-4143632D01*
X3178035Y-4143632D02*
X3158987Y-4162680D01*
X3158987Y-4162680D02*
X3130416Y-4172204D01*
X3130416Y-4172204D02*
X3082797Y-4172204D01*
X3282797Y-4172204D02*
X3282797Y-4038870D01*
X3282797Y-4076966D02*
X3292321Y-4057918D01*
X3292321Y-4057918D02*
X3301844Y-4048394D01*
X3301844Y-4048394D02*
X3320892Y-4038870D01*
X3320892Y-4038870D02*
X3339940Y-4038870D01*
X3406606Y-4172204D02*
X3406606Y-4038870D01*
X3406606Y-3972204D02*
X3397082Y-3981728D01*
X3397082Y-3981728D02*
X3406606Y-3991251D01*
X3406606Y-3991251D02*
X3416130Y-3981728D01*
X3416130Y-3981728D02*
X3406606Y-3972204D01*
X3406606Y-3972204D02*
X3406606Y-3991251D01*
X3530416Y-4172204D02*
X3511368Y-4162680D01*
X3511368Y-4162680D02*
X3501844Y-4143632D01*
X3501844Y-4143632D02*
X3501844Y-3972204D01*
X3635178Y-4172204D02*
X3616130Y-4162680D01*
X3616130Y-4162680D02*
X3606606Y-4143632D01*
X3606606Y-4143632D02*
X3606606Y-3972204D01*
X3863749Y-4172204D02*
X3863749Y-3972204D01*
X3863749Y-3972204D02*
X3930416Y-4115061D01*
X3930416Y-4115061D02*
X3997082Y-3972204D01*
X3997082Y-3972204D02*
X3997082Y-4172204D01*
X4178035Y-4172204D02*
X4178035Y-4067442D01*
X4178035Y-4067442D02*
X4168511Y-4048394D01*
X4168511Y-4048394D02*
X4149463Y-4038870D01*
X4149463Y-4038870D02*
X4111368Y-4038870D01*
X4111368Y-4038870D02*
X4092321Y-4048394D01*
X4178035Y-4162680D02*
X4158987Y-4172204D01*
X4158987Y-4172204D02*
X4111368Y-4172204D01*
X4111368Y-4172204D02*
X4092321Y-4162680D01*
X4092321Y-4162680D02*
X4082797Y-4143632D01*
X4082797Y-4143632D02*
X4082797Y-4124585D01*
X4082797Y-4124585D02*
X4092321Y-4105537D01*
X4092321Y-4105537D02*
X4111368Y-4096013D01*
X4111368Y-4096013D02*
X4158987Y-4096013D01*
X4158987Y-4096013D02*
X4178035Y-4086489D01*
X4273273Y-4038870D02*
X4273273Y-4238870D01*
X4273273Y-4048394D02*
X4292321Y-4038870D01*
X4292321Y-4038870D02*
X4330416Y-4038870D01*
X4330416Y-4038870D02*
X4349464Y-4048394D01*
X4349464Y-4048394D02*
X4358987Y-4057918D01*
X4358987Y-4057918D02*
X4368511Y-4076966D01*
X4368511Y-4076966D02*
X4368511Y-4134108D01*
X4368511Y-4134108D02*
X4358987Y-4153156D01*
X4358987Y-4153156D02*
X4349464Y-4162680D01*
X4349464Y-4162680D02*
X4330416Y-4172204D01*
X4330416Y-4172204D02*
X4292321Y-4172204D01*
X4292321Y-4172204D02*
X4273273Y-4162680D01*
X4454225Y-4153156D02*
X4463749Y-4162680D01*
X4463749Y-4162680D02*
X4454225Y-4172204D01*
X4454225Y-4172204D02*
X4444702Y-4162680D01*
X4444702Y-4162680D02*
X4454225Y-4153156D01*
X4454225Y-4153156D02*
X4454225Y-4172204D01*
X4454225Y-4048394D02*
X4463749Y-4057918D01*
X4463749Y-4057918D02*
X4454225Y-4067442D01*
X4454225Y-4067442D02*
X4444702Y-4057918D01*
X4444702Y-4057918D02*
X4454225Y-4048394D01*
X4454225Y-4048394D02*
X4454225Y-4067442D01*
D12*
X2712020Y-4445720D02*
X2822020Y-4555720D01*
X2822020Y-4445720D02*
X2712020Y-4555720D01*
D11*
X3187559Y-4592204D02*
X3073273Y-4592204D01*
X3130416Y-4592204D02*
X3130416Y-4392204D01*
X3130416Y-4392204D02*
X3111368Y-4420775D01*
X3111368Y-4420775D02*
X3092321Y-4439823D01*
X3092321Y-4439823D02*
X3073273Y-4449347D01*
X3273273Y-4573156D02*
X3282797Y-4582680D01*
X3282797Y-4582680D02*
X3273273Y-4592204D01*
X3273273Y-4592204D02*
X3263749Y-4582680D01*
X3263749Y-4582680D02*
X3273273Y-4573156D01*
X3273273Y-4573156D02*
X3273273Y-4592204D01*
X3473273Y-4592204D02*
X3358987Y-4592204D01*
X3416130Y-4592204D02*
X3416130Y-4392204D01*
X3416130Y-4392204D02*
X3397082Y-4420775D01*
X3397082Y-4420775D02*
X3378035Y-4439823D01*
X3378035Y-4439823D02*
X3358987Y-4449347D01*
X3597082Y-4392204D02*
X3616130Y-4392204D01*
X3616130Y-4392204D02*
X3635178Y-4401728D01*
X3635178Y-4401728D02*
X3644702Y-4411251D01*
X3644702Y-4411251D02*
X3654225Y-4430299D01*
X3654225Y-4430299D02*
X3663749Y-4468394D01*
X3663749Y-4468394D02*
X3663749Y-4516013D01*
X3663749Y-4516013D02*
X3654225Y-4554109D01*
X3654225Y-4554109D02*
X3644702Y-4573156D01*
X3644702Y-4573156D02*
X3635178Y-4582680D01*
X3635178Y-4582680D02*
X3616130Y-4592204D01*
X3616130Y-4592204D02*
X3597082Y-4592204D01*
X3597082Y-4592204D02*
X3578035Y-4582680D01*
X3578035Y-4582680D02*
X3568511Y-4573156D01*
X3568511Y-4573156D02*
X3558987Y-4554109D01*
X3558987Y-4554109D02*
X3549463Y-4516013D01*
X3549463Y-4516013D02*
X3549463Y-4468394D01*
X3549463Y-4468394D02*
X3558987Y-4430299D01*
X3558987Y-4430299D02*
X3568511Y-4411251D01*
X3568511Y-4411251D02*
X3578035Y-4401728D01*
X3578035Y-4401728D02*
X3597082Y-4392204D01*
X3787559Y-4392204D02*
X3806606Y-4392204D01*
X3806606Y-4392204D02*
X3825654Y-4401728D01*
X3825654Y-4401728D02*
X3835178Y-4411251D01*
X3835178Y-4411251D02*
X3844702Y-4430299D01*
X3844702Y-4430299D02*
X3854225Y-4468394D01*
X3854225Y-4468394D02*
X3854225Y-4516013D01*
X3854225Y-4516013D02*
X3844702Y-4554109D01*
X3844702Y-4554109D02*
X3835178Y-4573156D01*
X3835178Y-4573156D02*
X3825654Y-4582680D01*
X3825654Y-4582680D02*
X3806606Y-4592204D01*
X3806606Y-4592204D02*
X3787559Y-4592204D01*
X3787559Y-4592204D02*
X3768511Y-4582680D01*
X3768511Y-4582680D02*
X3758987Y-4573156D01*
X3758987Y-4573156D02*
X3749463Y-4554109D01*
X3749463Y-4554109D02*
X3739940Y-4516013D01*
X3739940Y-4516013D02*
X3739940Y-4468394D01*
X3739940Y-4468394D02*
X3749463Y-4430299D01*
X3749463Y-4430299D02*
X3758987Y-4411251D01*
X3758987Y-4411251D02*
X3768511Y-4401728D01*
X3768511Y-4401728D02*
X3787559Y-4392204D01*
X3939940Y-4592204D02*
X3939940Y-4458870D01*
X3939940Y-4477918D02*
X3949463Y-4468394D01*
X3949463Y-4468394D02*
X3968511Y-4458870D01*
X3968511Y-4458870D02*
X3997083Y-4458870D01*
X3997083Y-4458870D02*
X4016130Y-4468394D01*
X4016130Y-4468394D02*
X4025654Y-4487442D01*
X4025654Y-4487442D02*
X4025654Y-4592204D01*
X4025654Y-4487442D02*
X4035178Y-4468394D01*
X4035178Y-4468394D02*
X4054225Y-4458870D01*
X4054225Y-4458870D02*
X4082797Y-4458870D01*
X4082797Y-4458870D02*
X4101844Y-4468394D01*
X4101844Y-4468394D02*
X4111368Y-4487442D01*
X4111368Y-4487442D02*
X4111368Y-4592204D01*
X4206606Y-4592204D02*
X4206606Y-4458870D01*
X4206606Y-4477918D02*
X4216130Y-4468394D01*
X4216130Y-4468394D02*
X4235178Y-4458870D01*
X4235178Y-4458870D02*
X4263749Y-4458870D01*
X4263749Y-4458870D02*
X4282797Y-4468394D01*
X4282797Y-4468394D02*
X4292321Y-4487442D01*
X4292321Y-4487442D02*
X4292321Y-4592204D01*
X4292321Y-4487442D02*
X4301845Y-4468394D01*
X4301845Y-4468394D02*
X4320892Y-4458870D01*
X4320892Y-4458870D02*
X4349464Y-4458870D01*
X4349464Y-4458870D02*
X4368511Y-4468394D01*
X4368511Y-4468394D02*
X4378035Y-4487442D01*
X4378035Y-4487442D02*
X4378035Y-4592204D01*
X4768511Y-4382680D02*
X4597083Y-4639823D01*
X5025654Y-4392204D02*
X5044702Y-4392204D01*
X5044702Y-4392204D02*
X5063749Y-4401728D01*
X5063749Y-4401728D02*
X5073273Y-4411251D01*
X5073273Y-4411251D02*
X5082797Y-4430299D01*
X5082797Y-4430299D02*
X5092321Y-4468394D01*
X5092321Y-4468394D02*
X5092321Y-4516013D01*
X5092321Y-4516013D02*
X5082797Y-4554109D01*
X5082797Y-4554109D02*
X5073273Y-4573156D01*
X5073273Y-4573156D02*
X5063749Y-4582680D01*
X5063749Y-4582680D02*
X5044702Y-4592204D01*
X5044702Y-4592204D02*
X5025654Y-4592204D01*
X5025654Y-4592204D02*
X5006607Y-4582680D01*
X5006607Y-4582680D02*
X4997083Y-4573156D01*
X4997083Y-4573156D02*
X4987559Y-4554109D01*
X4987559Y-4554109D02*
X4978035Y-4516013D01*
X4978035Y-4516013D02*
X4978035Y-4468394D01*
X4978035Y-4468394D02*
X4987559Y-4430299D01*
X4987559Y-4430299D02*
X4997083Y-4411251D01*
X4997083Y-4411251D02*
X5006607Y-4401728D01*
X5006607Y-4401728D02*
X5025654Y-4392204D01*
X5178035Y-4573156D02*
X5187559Y-4582680D01*
X5187559Y-4582680D02*
X5178035Y-4592204D01*
X5178035Y-4592204D02*
X5168511Y-4582680D01*
X5168511Y-4582680D02*
X5178035Y-4573156D01*
X5178035Y-4573156D02*
X5178035Y-4592204D01*
X5311368Y-4392204D02*
X5330416Y-4392204D01*
X5330416Y-4392204D02*
X5349464Y-4401728D01*
X5349464Y-4401728D02*
X5358988Y-4411251D01*
X5358988Y-4411251D02*
X5368511Y-4430299D01*
X5368511Y-4430299D02*
X5378035Y-4468394D01*
X5378035Y-4468394D02*
X5378035Y-4516013D01*
X5378035Y-4516013D02*
X5368511Y-4554109D01*
X5368511Y-4554109D02*
X5358988Y-4573156D01*
X5358988Y-4573156D02*
X5349464Y-4582680D01*
X5349464Y-4582680D02*
X5330416Y-4592204D01*
X5330416Y-4592204D02*
X5311368Y-4592204D01*
X5311368Y-4592204D02*
X5292321Y-4582680D01*
X5292321Y-4582680D02*
X5282797Y-4573156D01*
X5282797Y-4573156D02*
X5273273Y-4554109D01*
X5273273Y-4554109D02*
X5263749Y-4516013D01*
X5263749Y-4516013D02*
X5263749Y-4468394D01*
X5263749Y-4468394D02*
X5273273Y-4430299D01*
X5273273Y-4430299D02*
X5282797Y-4411251D01*
X5282797Y-4411251D02*
X5292321Y-4401728D01*
X5292321Y-4401728D02*
X5311368Y-4392204D01*
X5549464Y-4458870D02*
X5549464Y-4592204D01*
X5501845Y-4382680D02*
X5454226Y-4525537D01*
X5454226Y-4525537D02*
X5578035Y-4525537D01*
X5635178Y-4392204D02*
X5758987Y-4392204D01*
X5758987Y-4392204D02*
X5692321Y-4468394D01*
X5692321Y-4468394D02*
X5720892Y-4468394D01*
X5720892Y-4468394D02*
X5739940Y-4477918D01*
X5739940Y-4477918D02*
X5749464Y-4487442D01*
X5749464Y-4487442D02*
X5758987Y-4506490D01*
X5758987Y-4506490D02*
X5758987Y-4554109D01*
X5758987Y-4554109D02*
X5749464Y-4573156D01*
X5749464Y-4573156D02*
X5739940Y-4582680D01*
X5739940Y-4582680D02*
X5720892Y-4592204D01*
X5720892Y-4592204D02*
X5663749Y-4592204D01*
X5663749Y-4592204D02*
X5644702Y-4582680D01*
X5644702Y-4582680D02*
X5635178Y-4573156D01*
X5825654Y-4392204D02*
X5949464Y-4392204D01*
X5949464Y-4392204D02*
X5882797Y-4468394D01*
X5882797Y-4468394D02*
X5911368Y-4468394D01*
X5911368Y-4468394D02*
X5930416Y-4477918D01*
X5930416Y-4477918D02*
X5939940Y-4487442D01*
X5939940Y-4487442D02*
X5949464Y-4506490D01*
X5949464Y-4506490D02*
X5949464Y-4554109D01*
X5949464Y-4554109D02*
X5939940Y-4573156D01*
X5939940Y-4573156D02*
X5930416Y-4582680D01*
X5930416Y-4582680D02*
X5911368Y-4592204D01*
X5911368Y-4592204D02*
X5854226Y-4592204D01*
X5854226Y-4592204D02*
X5835178Y-4582680D01*
X5835178Y-4582680D02*
X5825654Y-4573156D01*
X6025654Y-4392204D02*
X6025654Y-4430299D01*
X6101845Y-4392204D02*
X6101845Y-4430299D01*
X6397083Y-4668394D02*
X6387559Y-4658870D01*
X6387559Y-4658870D02*
X6368511Y-4630299D01*
X6368511Y-4630299D02*
X6358988Y-4611251D01*
X6358988Y-4611251D02*
X6349464Y-4582680D01*
X6349464Y-4582680D02*
X6339940Y-4535061D01*
X6339940Y-4535061D02*
X6339940Y-4496966D01*
X6339940Y-4496966D02*
X6349464Y-4449347D01*
X6349464Y-4449347D02*
X6358988Y-4420775D01*
X6358988Y-4420775D02*
X6368511Y-4401728D01*
X6368511Y-4401728D02*
X6387559Y-4373156D01*
X6387559Y-4373156D02*
X6397083Y-4363632D01*
X6463749Y-4411251D02*
X6473273Y-4401728D01*
X6473273Y-4401728D02*
X6492321Y-4392204D01*
X6492321Y-4392204D02*
X6539940Y-4392204D01*
X6539940Y-4392204D02*
X6558988Y-4401728D01*
X6558988Y-4401728D02*
X6568511Y-4411251D01*
X6568511Y-4411251D02*
X6578035Y-4430299D01*
X6578035Y-4430299D02*
X6578035Y-4449347D01*
X6578035Y-4449347D02*
X6568511Y-4477918D01*
X6568511Y-4477918D02*
X6454226Y-4592204D01*
X6454226Y-4592204D02*
X6578035Y-4592204D01*
X6816130Y-4592204D02*
X6816130Y-4392204D01*
X6901845Y-4592204D02*
X6901845Y-4487442D01*
X6901845Y-4487442D02*
X6892321Y-4468394D01*
X6892321Y-4468394D02*
X6873273Y-4458870D01*
X6873273Y-4458870D02*
X6844702Y-4458870D01*
X6844702Y-4458870D02*
X6825654Y-4468394D01*
X6825654Y-4468394D02*
X6816130Y-4477918D01*
X7025654Y-4592204D02*
X7006607Y-4582680D01*
X7006607Y-4582680D02*
X6997083Y-4573156D01*
X6997083Y-4573156D02*
X6987559Y-4554109D01*
X6987559Y-4554109D02*
X6987559Y-4496966D01*
X6987559Y-4496966D02*
X6997083Y-4477918D01*
X6997083Y-4477918D02*
X7006607Y-4468394D01*
X7006607Y-4468394D02*
X7025654Y-4458870D01*
X7025654Y-4458870D02*
X7054226Y-4458870D01*
X7054226Y-4458870D02*
X7073273Y-4468394D01*
X7073273Y-4468394D02*
X7082797Y-4477918D01*
X7082797Y-4477918D02*
X7092321Y-4496966D01*
X7092321Y-4496966D02*
X7092321Y-4554109D01*
X7092321Y-4554109D02*
X7082797Y-4573156D01*
X7082797Y-4573156D02*
X7073273Y-4582680D01*
X7073273Y-4582680D02*
X7054226Y-4592204D01*
X7054226Y-4592204D02*
X7025654Y-4592204D01*
X7206607Y-4592204D02*
X7187559Y-4582680D01*
X7187559Y-4582680D02*
X7178035Y-4563632D01*
X7178035Y-4563632D02*
X7178035Y-4392204D01*
X7358988Y-4582680D02*
X7339940Y-4592204D01*
X7339940Y-4592204D02*
X7301845Y-4592204D01*
X7301845Y-4592204D02*
X7282797Y-4582680D01*
X7282797Y-4582680D02*
X7273273Y-4563632D01*
X7273273Y-4563632D02*
X7273273Y-4487442D01*
X7273273Y-4487442D02*
X7282797Y-4468394D01*
X7282797Y-4468394D02*
X7301845Y-4458870D01*
X7301845Y-4458870D02*
X7339940Y-4458870D01*
X7339940Y-4458870D02*
X7358988Y-4468394D01*
X7358988Y-4468394D02*
X7368511Y-4487442D01*
X7368511Y-4487442D02*
X7368511Y-4506490D01*
X7368511Y-4506490D02*
X7273273Y-4525537D01*
X7444702Y-4582680D02*
X7463750Y-4592204D01*
X7463750Y-4592204D02*
X7501845Y-4592204D01*
X7501845Y-4592204D02*
X7520892Y-4582680D01*
X7520892Y-4582680D02*
X7530416Y-4563632D01*
X7530416Y-4563632D02*
X7530416Y-4554109D01*
X7530416Y-4554109D02*
X7520892Y-4535061D01*
X7520892Y-4535061D02*
X7501845Y-4525537D01*
X7501845Y-4525537D02*
X7473273Y-4525537D01*
X7473273Y-4525537D02*
X7454226Y-4516013D01*
X7454226Y-4516013D02*
X7444702Y-4496966D01*
X7444702Y-4496966D02*
X7444702Y-4487442D01*
X7444702Y-4487442D02*
X7454226Y-4468394D01*
X7454226Y-4468394D02*
X7473273Y-4458870D01*
X7473273Y-4458870D02*
X7501845Y-4458870D01*
X7501845Y-4458870D02*
X7520892Y-4468394D01*
X7597083Y-4668394D02*
X7606607Y-4658870D01*
X7606607Y-4658870D02*
X7625654Y-4630299D01*
X7625654Y-4630299D02*
X7635178Y-4611251D01*
X7635178Y-4611251D02*
X7644702Y-4582680D01*
X7644702Y-4582680D02*
X7654226Y-4535061D01*
X7654226Y-4535061D02*
X7654226Y-4496966D01*
X7654226Y-4496966D02*
X7644702Y-4449347D01*
X7644702Y-4449347D02*
X7635178Y-4420775D01*
X7635178Y-4420775D02*
X7625654Y-4401728D01*
X7625654Y-4401728D02*
X7606607Y-4373156D01*
X7606607Y-4373156D02*
X7597083Y-4363632D01*
X7958988Y-4668394D02*
X7949464Y-4658870D01*
X7949464Y-4658870D02*
X7930416Y-4630299D01*
X7930416Y-4630299D02*
X7920892Y-4611251D01*
X7920892Y-4611251D02*
X7911369Y-4582680D01*
X7911369Y-4582680D02*
X7901845Y-4535061D01*
X7901845Y-4535061D02*
X7901845Y-4496966D01*
X7901845Y-4496966D02*
X7911369Y-4449347D01*
X7911369Y-4449347D02*
X7920892Y-4420775D01*
X7920892Y-4420775D02*
X7930416Y-4401728D01*
X7930416Y-4401728D02*
X7949464Y-4373156D01*
X7949464Y-4373156D02*
X7958988Y-4363632D01*
X8035178Y-4458870D02*
X8035178Y-4592204D01*
X8035178Y-4477918D02*
X8044702Y-4468394D01*
X8044702Y-4468394D02*
X8063750Y-4458870D01*
X8063750Y-4458870D02*
X8092321Y-4458870D01*
X8092321Y-4458870D02*
X8111369Y-4468394D01*
X8111369Y-4468394D02*
X8120892Y-4487442D01*
X8120892Y-4487442D02*
X8120892Y-4592204D01*
X8244702Y-4592204D02*
X8225654Y-4582680D01*
X8225654Y-4582680D02*
X8216131Y-4573156D01*
X8216131Y-4573156D02*
X8206607Y-4554109D01*
X8206607Y-4554109D02*
X8206607Y-4496966D01*
X8206607Y-4496966D02*
X8216131Y-4477918D01*
X8216131Y-4477918D02*
X8225654Y-4468394D01*
X8225654Y-4468394D02*
X8244702Y-4458870D01*
X8244702Y-4458870D02*
X8273273Y-4458870D01*
X8273273Y-4458870D02*
X8292321Y-4468394D01*
X8292321Y-4468394D02*
X8301845Y-4477918D01*
X8301845Y-4477918D02*
X8311369Y-4496966D01*
X8311369Y-4496966D02*
X8311369Y-4554109D01*
X8311369Y-4554109D02*
X8301845Y-4573156D01*
X8301845Y-4573156D02*
X8292321Y-4582680D01*
X8292321Y-4582680D02*
X8273273Y-4592204D01*
X8273273Y-4592204D02*
X8244702Y-4592204D01*
X8368512Y-4458870D02*
X8444702Y-4458870D01*
X8397083Y-4392204D02*
X8397083Y-4563632D01*
X8397083Y-4563632D02*
X8406607Y-4582680D01*
X8406607Y-4582680D02*
X8425654Y-4592204D01*
X8425654Y-4592204D02*
X8444702Y-4592204D01*
X8663750Y-4458870D02*
X8663750Y-4658870D01*
X8663750Y-4468394D02*
X8682797Y-4458870D01*
X8682797Y-4458870D02*
X8720893Y-4458870D01*
X8720893Y-4458870D02*
X8739940Y-4468394D01*
X8739940Y-4468394D02*
X8749464Y-4477918D01*
X8749464Y-4477918D02*
X8758988Y-4496966D01*
X8758988Y-4496966D02*
X8758988Y-4554109D01*
X8758988Y-4554109D02*
X8749464Y-4573156D01*
X8749464Y-4573156D02*
X8739940Y-4582680D01*
X8739940Y-4582680D02*
X8720893Y-4592204D01*
X8720893Y-4592204D02*
X8682797Y-4592204D01*
X8682797Y-4592204D02*
X8663750Y-4582680D01*
X8873274Y-4592204D02*
X8854226Y-4582680D01*
X8854226Y-4582680D02*
X8844702Y-4563632D01*
X8844702Y-4563632D02*
X8844702Y-4392204D01*
X9035178Y-4592204D02*
X9035178Y-4487442D01*
X9035178Y-4487442D02*
X9025655Y-4468394D01*
X9025655Y-4468394D02*
X9006607Y-4458870D01*
X9006607Y-4458870D02*
X8968512Y-4458870D01*
X8968512Y-4458870D02*
X8949464Y-4468394D01*
X9035178Y-4582680D02*
X9016131Y-4592204D01*
X9016131Y-4592204D02*
X8968512Y-4592204D01*
X8968512Y-4592204D02*
X8949464Y-4582680D01*
X8949464Y-4582680D02*
X8939940Y-4563632D01*
X8939940Y-4563632D02*
X8939940Y-4544585D01*
X8939940Y-4544585D02*
X8949464Y-4525537D01*
X8949464Y-4525537D02*
X8968512Y-4516013D01*
X8968512Y-4516013D02*
X9016131Y-4516013D01*
X9016131Y-4516013D02*
X9035178Y-4506490D01*
X9101845Y-4458870D02*
X9178035Y-4458870D01*
X9130416Y-4392204D02*
X9130416Y-4563632D01*
X9130416Y-4563632D02*
X9139940Y-4582680D01*
X9139940Y-4582680D02*
X9158988Y-4592204D01*
X9158988Y-4592204D02*
X9178035Y-4592204D01*
X9320893Y-4582680D02*
X9301845Y-4592204D01*
X9301845Y-4592204D02*
X9263750Y-4592204D01*
X9263750Y-4592204D02*
X9244702Y-4582680D01*
X9244702Y-4582680D02*
X9235178Y-4563632D01*
X9235178Y-4563632D02*
X9235178Y-4487442D01*
X9235178Y-4487442D02*
X9244702Y-4468394D01*
X9244702Y-4468394D02*
X9263750Y-4458870D01*
X9263750Y-4458870D02*
X9301845Y-4458870D01*
X9301845Y-4458870D02*
X9320893Y-4468394D01*
X9320893Y-4468394D02*
X9330416Y-4487442D01*
X9330416Y-4487442D02*
X9330416Y-4506490D01*
X9330416Y-4506490D02*
X9235178Y-4525537D01*
X9501845Y-4592204D02*
X9501845Y-4392204D01*
X9501845Y-4582680D02*
X9482797Y-4592204D01*
X9482797Y-4592204D02*
X9444702Y-4592204D01*
X9444702Y-4592204D02*
X9425655Y-4582680D01*
X9425655Y-4582680D02*
X9416131Y-4573156D01*
X9416131Y-4573156D02*
X9406607Y-4554109D01*
X9406607Y-4554109D02*
X9406607Y-4496966D01*
X9406607Y-4496966D02*
X9416131Y-4477918D01*
X9416131Y-4477918D02*
X9425655Y-4468394D01*
X9425655Y-4468394D02*
X9444702Y-4458870D01*
X9444702Y-4458870D02*
X9482797Y-4458870D01*
X9482797Y-4458870D02*
X9501845Y-4468394D01*
X9578036Y-4668394D02*
X9587559Y-4658870D01*
X9587559Y-4658870D02*
X9606607Y-4630299D01*
X9606607Y-4630299D02*
X9616131Y-4611251D01*
X9616131Y-4611251D02*
X9625655Y-4582680D01*
X9625655Y-4582680D02*
X9635178Y-4535061D01*
X9635178Y-4535061D02*
X9635178Y-4496966D01*
X9635178Y-4496966D02*
X9625655Y-4449347D01*
X9625655Y-4449347D02*
X9616131Y-4420775D01*
X9616131Y-4420775D02*
X9606607Y-4401728D01*
X9606607Y-4401728D02*
X9587559Y-4373156D01*
X9587559Y-4373156D02*
X9578036Y-4363632D01*
M02*
