G04 #@! TF.GenerationSoftware,KiCad,Pcbnew,8.0.7-1.fc41*
G04 #@! TF.CreationDate,2025-02-15T00:44:52+02:00*
G04 #@! TF.ProjectId,fan_pwm_to_rotor_lock,66616e5f-7077-46d5-9f74-6f5f726f746f,rev?*
G04 #@! TF.SameCoordinates,Original*
G04 #@! TF.FileFunction,Copper,L1,Top*
G04 #@! TF.FilePolarity,Positive*
%FSLAX46Y46*%
G04 Gerber Fmt 4.6, Leading zero omitted, Abs format (unit mm)*
G04 Created by KiCad (PCBNEW 8.0.7-1.fc41) date 2025-02-15 00:44:52*
%MOMM*%
%LPD*%
G01*
G04 APERTURE LIST*
G04 Aperture macros list*
%AMRoundRect*
0 Rectangle with rounded corners*
0 $1 Rounding radius*
0 $2 $3 $4 $5 $6 $7 $8 $9 X,Y pos of 4 corners*
0 Add a 4 corners polygon primitive as box body*
4,1,4,$2,$3,$4,$5,$6,$7,$8,$9,$2,$3,0*
0 Add four circle primitives for the rounded corners*
1,1,$1+$1,$2,$3*
1,1,$1+$1,$4,$5*
1,1,$1+$1,$6,$7*
1,1,$1+$1,$8,$9*
0 Add four rect primitives between the rounded corners*
20,1,$1+$1,$2,$3,$4,$5,0*
20,1,$1+$1,$4,$5,$6,$7,0*
20,1,$1+$1,$6,$7,$8,$9,0*
20,1,$1+$1,$8,$9,$2,$3,0*%
G04 Aperture macros list end*
G04 #@! TA.AperFunction,ComponentPad*
%ADD10C,0.800000*%
G04 #@! TD*
G04 #@! TA.AperFunction,ComponentPad*
%ADD11C,6.400000*%
G04 #@! TD*
G04 #@! TA.AperFunction,SMDPad,CuDef*
%ADD12RoundRect,0.250000X-0.475000X0.337500X-0.475000X-0.337500X0.475000X-0.337500X0.475000X0.337500X0*%
G04 #@! TD*
G04 #@! TA.AperFunction,SMDPad,CuDef*
%ADD13RoundRect,0.250000X-0.337500X-0.475000X0.337500X-0.475000X0.337500X0.475000X-0.337500X0.475000X0*%
G04 #@! TD*
G04 #@! TA.AperFunction,SMDPad,CuDef*
%ADD14R,0.300000X1.600000*%
G04 #@! TD*
G04 #@! TA.AperFunction,ComponentPad*
%ADD15R,2.030000X1.730000*%
G04 #@! TD*
G04 #@! TA.AperFunction,ComponentPad*
%ADD16O,2.030000X1.730000*%
G04 #@! TD*
G04 #@! TA.AperFunction,SMDPad,CuDef*
%ADD17RoundRect,0.250000X0.250000X0.250000X-0.250000X0.250000X-0.250000X-0.250000X0.250000X-0.250000X0*%
G04 #@! TD*
G04 #@! TA.AperFunction,SMDPad,CuDef*
%ADD18RoundRect,0.250000X-0.350000X-0.450000X0.350000X-0.450000X0.350000X0.450000X-0.350000X0.450000X0*%
G04 #@! TD*
G04 #@! TA.AperFunction,SMDPad,CuDef*
%ADD19RoundRect,0.250000X0.450000X-0.350000X0.450000X0.350000X-0.450000X0.350000X-0.450000X-0.350000X0*%
G04 #@! TD*
G04 #@! TA.AperFunction,SMDPad,CuDef*
%ADD20RoundRect,0.250000X-0.450000X0.350000X-0.450000X-0.350000X0.450000X-0.350000X0.450000X0.350000X0*%
G04 #@! TD*
G04 #@! TA.AperFunction,ViaPad*
%ADD21C,0.550000*%
G04 #@! TD*
G04 #@! TA.AperFunction,Conductor*
%ADD22C,0.250000*%
G04 #@! TD*
G04 #@! TA.AperFunction,Conductor*
%ADD23C,0.500000*%
G04 #@! TD*
G04 APERTURE END LIST*
D10*
X39662400Y-19253200D03*
X40365344Y-17556144D03*
X40365344Y-20950256D03*
X42062400Y-16853200D03*
D11*
X42062400Y-19253200D03*
D10*
X42062400Y-21653200D03*
X43759456Y-17556144D03*
X43759456Y-20950256D03*
X44462400Y-19253200D03*
D12*
X38684200Y-27439800D03*
X38684200Y-29514800D03*
D13*
X41880700Y-25120600D03*
X39805700Y-25120600D03*
D14*
X38192702Y-25347400D03*
X37542701Y-25347400D03*
X36892701Y-25347400D03*
X36242700Y-25347400D03*
X36242700Y-21947400D03*
X36892701Y-21947400D03*
X37542701Y-21947400D03*
X38192702Y-21947400D03*
D15*
X31521400Y-36728400D03*
D16*
X31521400Y-34188400D03*
X31521400Y-31648400D03*
X31521400Y-29108400D03*
D12*
X38684200Y-31296700D03*
X38684200Y-33371700D03*
D17*
X41000999Y-35356800D03*
X38501001Y-35356800D03*
D18*
X38547800Y-37287200D03*
X40547800Y-37287200D03*
D19*
X36601400Y-29514800D03*
X36601400Y-27514800D03*
D20*
X40767000Y-27514800D03*
X40767000Y-29514800D03*
D19*
X36601400Y-31318200D03*
X36601400Y-33318200D03*
D20*
X40767000Y-31318200D03*
X40767000Y-33318200D03*
D15*
X31521400Y-25146000D03*
D16*
X31521400Y-22606000D03*
X31521400Y-20066000D03*
X31521400Y-17526000D03*
D19*
X36601400Y-37169600D03*
X36601400Y-35169600D03*
D21*
X35712400Y-21615400D03*
X37566600Y-20751800D03*
X36242700Y-26517600D03*
X36423600Y-20650200D03*
X35306000Y-24587200D03*
X40995600Y-25628600D03*
X39751000Y-29514800D03*
X37769800Y-34010600D03*
X41605200Y-37160200D03*
X41512570Y-32311977D03*
D22*
X39370000Y-28549600D02*
X39217600Y-28549600D01*
X39217600Y-28549600D02*
X38684200Y-28016200D01*
X38684200Y-28016200D02*
X38684200Y-27439800D01*
X39370000Y-28549600D02*
X37566600Y-28549600D01*
X37566600Y-28549600D02*
X36601400Y-29514800D01*
X41000999Y-35356800D02*
X42138600Y-34219199D01*
X42138600Y-29032200D02*
X41656000Y-28549600D01*
X42138600Y-34219199D02*
X42138600Y-29032200D01*
X41656000Y-28549600D02*
X39370000Y-28549600D01*
D23*
X40995600Y-25628600D02*
X41732200Y-25628600D01*
X41732200Y-25628600D02*
X42011600Y-25349200D01*
X36601400Y-33318200D02*
X34080200Y-33318200D01*
X34080200Y-33318200D02*
X33731200Y-32969200D01*
X36601400Y-35169600D02*
X36601400Y-33318200D01*
X35712400Y-21615400D02*
X36044400Y-21947400D01*
X36044400Y-21947400D02*
X36242700Y-21947400D01*
D22*
X36892701Y-20941501D02*
X36892701Y-21947400D01*
X36423600Y-20650200D02*
X36601400Y-20650200D01*
X36601400Y-20650200D02*
X36892701Y-20941501D01*
D23*
X33731200Y-23926800D02*
X34213800Y-23444200D01*
X34213800Y-23444200D02*
X37871400Y-23444200D01*
X37871400Y-23444200D02*
X39776400Y-25349200D01*
X39776400Y-25349200D02*
X39936600Y-25349200D01*
X39936600Y-25349200D02*
X38194502Y-25349200D01*
X38194502Y-25349200D02*
X38192702Y-25347400D01*
X37769800Y-34010600D02*
X38408700Y-33371700D01*
X38408700Y-33371700D02*
X38684200Y-33371700D01*
D22*
X38192702Y-21947400D02*
X38192702Y-20463502D01*
X38192702Y-20463502D02*
X37795200Y-20066000D01*
X37795200Y-20066000D02*
X31521400Y-20066000D01*
X36601400Y-37169600D02*
X38430200Y-37169600D01*
X38430200Y-37169600D02*
X38547800Y-37287200D01*
X31521400Y-36728400D02*
X36160200Y-36728400D01*
X36160200Y-36728400D02*
X36601400Y-37169600D01*
X38547800Y-37287200D02*
X38547800Y-35403599D01*
X38547800Y-35403599D02*
X38501001Y-35356800D01*
X40767000Y-27514800D02*
X40748200Y-27514800D01*
X40748200Y-27514800D02*
X39776400Y-26543000D01*
X39776400Y-26543000D02*
X37109400Y-26543000D01*
X37109400Y-26543000D02*
X36601400Y-27051000D01*
X36601400Y-27051000D02*
X36601400Y-27514800D01*
X37566600Y-21923501D02*
X37542701Y-21947400D01*
X37566600Y-20751800D02*
X37566600Y-21923501D01*
X36601400Y-27514800D02*
X36242700Y-27156100D01*
X36242700Y-27156100D02*
X36242700Y-25347400D01*
X36601400Y-31318200D02*
X35306000Y-30022800D01*
X35306000Y-30022800D02*
X35306000Y-24587200D01*
X36652200Y-24130000D02*
X36892701Y-24370501D01*
X35306000Y-24587200D02*
X35763200Y-24130000D01*
X36892701Y-24370501D02*
X36892701Y-25347400D01*
X35763200Y-24130000D02*
X36652200Y-24130000D01*
X41512570Y-32311977D02*
X41512570Y-32019570D01*
X41512570Y-32019570D02*
X40776400Y-31283400D01*
X40776400Y-31283400D02*
X36601400Y-31283400D01*
D23*
X39934800Y-25347400D02*
X39936600Y-25349200D01*
X40767000Y-29514800D02*
X38684200Y-29514800D01*
X40767000Y-33318200D02*
X38737700Y-33318200D01*
X38737700Y-33318200D02*
X38684200Y-33371700D01*
D22*
X41605200Y-37160200D02*
X41478200Y-37287200D01*
X41478200Y-37287200D02*
X40547800Y-37287200D01*
D23*
X31521400Y-22606000D02*
X32410400Y-22606000D01*
X32410400Y-22606000D02*
X33731200Y-23926800D01*
X33731200Y-23926800D02*
X33731200Y-32969200D01*
X33731200Y-32969200D02*
X32512000Y-34188400D01*
X32512000Y-34188400D02*
X31521400Y-34188400D01*
D22*
X36331400Y-37439600D02*
X36601400Y-37169600D01*
G04 #@! TA.AperFunction,Conductor*
G36*
X32756277Y-21762085D02*
G01*
X32776919Y-21778719D01*
X34304481Y-23306281D01*
X34337966Y-23367604D01*
X34340800Y-23393962D01*
X34340800Y-33197238D01*
X34321115Y-33264277D01*
X34304481Y-33284919D01*
X32675319Y-34914081D01*
X32613996Y-34947566D01*
X32587638Y-34950400D01*
X30988562Y-34950400D01*
X30921523Y-34930715D01*
X30900881Y-34914081D01*
X30592519Y-34605719D01*
X30559034Y-34544396D01*
X30556200Y-34518038D01*
X30556200Y-33858762D01*
X30575885Y-33791723D01*
X30592519Y-33771081D01*
X30900881Y-33462719D01*
X30962204Y-33429234D01*
X30988562Y-33426400D01*
X32435800Y-33426400D01*
X33223200Y-32639000D01*
X33223200Y-24003000D01*
X32664400Y-23444200D01*
X31064762Y-23444200D01*
X30997723Y-23424515D01*
X30977081Y-23407881D01*
X30617919Y-23048719D01*
X30584434Y-22987396D01*
X30581600Y-22961038D01*
X30581600Y-22250962D01*
X30601285Y-22183923D01*
X30617919Y-22163281D01*
X31002481Y-21778719D01*
X31063804Y-21745234D01*
X31090162Y-21742400D01*
X32689238Y-21742400D01*
X32756277Y-21762085D01*
G37*
G04 #@! TD.AperFunction*
M02*
